<?xml version="1.0" encoding="UTF-8" standalone="no"?>
<!-- Generator: Adobe Illustrator 16.0.0, SVG Export Plug-In . SVG Version: 6.00 Build 0)  -->

<svg
   xmlns:dc="http://purl.org/dc/elements/1.1/"
   xmlns:cc="http://creativecommons.org/ns#"
   xmlns:rdf="http://www.w3.org/1999/02/22-rdf-syntax-ns#"
   xmlns:svg="http://www.w3.org/2000/svg"
   xmlns="http://www.w3.org/2000/svg"
   xmlns:sodipodi="http://sodipodi.sourceforge.net/DTD/sodipodi-0.dtd"
   xmlns:inkscape="http://www.inkscape.org/namespaces/inkscape"
   version="1.1"
   id="Capa_1"
   x="0px"
   y="0px"
   width="415.262px"
   height="415.261px"
   viewBox="0 0 415.262 415.261"
   style="enable-background:new 0 0 415.262 415.261;"
   xml:space="preserve"
   inkscape:version="0.91 r13725"
   sodipodi:docname="arrows2.svg"><metadata
     id="metadata41"><rdf:RDF><cc:Work
         rdf:about=""><dc:format>image/svg+xml</dc:format><dc:type
           rdf:resource="http://purl.org/dc/dcmitype/StillImage" /><dc:title></dc:title></cc:Work></rdf:RDF></metadata><defs
     id="defs39" /><sodipodi:namedview
     pagecolor="#ffffff"
     bordercolor="#666666"
     borderopacity="1"
     objecttolerance="10"
     gridtolerance="10"
     guidetolerance="10"
     inkscape:pageopacity="0"
     inkscape:pageshadow="2"
     inkscape:window-width="1366"
     inkscape:window-height="715"
     id="namedview37"
     showgrid="false"
     inkscape:zoom="0.56831729"
     inkscape:cx="204.99163"
     inkscape:cy="207.63049"
     inkscape:window-x="0"
     inkscape:window-y="0"
     inkscape:window-maximized="1"
     inkscape:current-layer="Capa_1" /><g
     id="g3"
     style="fill:#ffffff"><path
       d="M414.937,374.984c-7.956-24.479-20.196-47.736-30.601-70.992c-1.224-3.06-6.12-3.06-7.956-1.224   c-10.403,11.016-22.031,22.032-28.764,35.496h-0.612c-74.664,5.508-146.88-58.141-198.288-104.652   c-59.364-53.244-113.22-118.116-134.64-195.84c-1.224-9.792-2.448-20.196-2.448-30.6c0-4.896-6.732-4.896-7.344,0   c0,1.836,0,3.672,0,5.508C1.836,12.68,0,14.516,0,17.576c0.612,6.732,2.448,13.464,3.672,20.196   C8.568,203.624,173.808,363.356,335.376,373.76c-5.508,9.792-10.403,20.195-16.523,29.988c-3.061,4.283,1.836,8.567,6.12,7.955   c30.6-4.283,58.14-18.972,86.292-29.987C413.712,381.104,416.16,378.656,414.937,374.984z M332.928,399.464   c3.673-7.956,6.12-15.912,10.404-23.868c1.225-3.061-0.612-5.508-2.448-6.12c0-1.836-1.224-3.061-3.06-3.672   c-146.268-24.48-264.996-124.236-309.06-259.489c28.764,53.244,72.828,99.756,116.28,138.924   c31.824,28.765,65.484,54.468,102.204,75.888c28.764,16.524,64.872,31.824,97.92,21.421l0,0c-1.836,4.896,5.508,7.344,7.956,3.672   c7.956-10.404,15.912-20.196,24.48-29.376c8.567,18.972,17.748,37.943,24.479,57.527   C379.44,382.94,356.796,393.956,332.928,399.464z"
       id="path5"
       style="fill:#ffffff" /></g><g
     id="g7" /><g
     id="g9" /><g
     id="g11" /><g
     id="g13" /><g
     id="g15" /><g
     id="g17" /><g
     id="g19" /><g
     id="g21" /><g
     id="g23" /><g
     id="g25" /><g
     id="g27" /><g
     id="g29" /><g
     id="g31" /><g
     id="g33" /><g
     id="g35" /></svg>