<?xml version="1.0" encoding="UTF-8" standalone="no"?>
<svg
   xmlns:dc="http://purl.org/dc/elements/1.1/"
   xmlns:cc="http://creativecommons.org/ns#"
   xmlns:rdf="http://www.w3.org/1999/02/22-rdf-syntax-ns#"
   xmlns:svg="http://www.w3.org/2000/svg"
   xmlns="http://www.w3.org/2000/svg"
   xmlns:sodipodi="http://sodipodi.sourceforge.net/DTD/sodipodi-0.dtd"
   xmlns:inkscape="http://www.inkscape.org/namespaces/inkscape"
   version="1.0"
   width="968pt"
   height="800pt"
   viewBox="0 0 968 800"
   preserveAspectRatio="xMidYMid meet"
   id="svg3412"
   inkscape:version="0.91 r13725"
   sodipodi:docname="arrowl.svg">
  <metadata
     id="metadata3448">
    <rdf:RDF>
      <cc:Work
         rdf:about="">
        <dc:format>image/svg+xml</dc:format>
        <dc:type
           rdf:resource="http://purl.org/dc/dcmitype/StillImage" />
        <dc:title></dc:title>
      </cc:Work>
    </rdf:RDF>
  </metadata>
  <defs
     id="defs3446" />
  <sodipodi:namedview
     pagecolor="#ffffff"
     bordercolor="#666666"
     borderopacity="1"
     objecttolerance="10"
     gridtolerance="10"
     guidetolerance="10"
     inkscape:pageopacity="0"
     inkscape:pageshadow="2"
     inkscape:window-width="1366"
     inkscape:window-height="715"
     id="namedview3444"
     showgrid="false"
     inkscape:zoom="0.19192898"
     inkscape:cx="1715.3565"
     inkscape:cy="365.19714"
     inkscape:window-x="0"
     inkscape:window-y="0"
     inkscape:window-maximized="1"
     inkscape:current-layer="svg3412"
     inkscape:snap-page="true" />
  <g
     transform="matrix(0,0.08655411,0.07417402,0,20.904609,5.9187198)"
     id="g3414"
     style="fill:#000000;stroke:none">
    <path
       d="m 6695,12770 c -4,-13 -18,-33 -32,-46 -24,-22 -24,-23 -5,-33 23,-13 38,1 51,47 11,36 -3,67 -14,32 z"
       id="path3416"
       inkscape:connector-curvature="0" />
    <path
       d="m 7035,12624 c -14,-15 -25,-32 -25,-38 0,-7 -9,-29 -20,-51 -11,-22 -20,-40 -20,-42 0,-11 119,117 124,135 11,32 -28,29 -59,-4 z"
       id="path3418"
       inkscape:connector-curvature="0" />
    <path
       d="m 6626,12583 c -46,-95 -113,-181 -171,-219 -36,-24 -55,-44 -58,-62 -5,-25 -31,-54 -110,-126 -15,-14 -38,-26 -49,-26 -16,0 -19,-3 -11,-11 7,-7 4,-17 -11,-34 -11,-12 -29,-34 -39,-49 -11,-16 -27,-26 -42,-26 -16,0 -30,-11 -44,-33 -11,-18 -31,-39 -45,-46 -13,-7 -34,-26 -45,-42 -13,-18 -31,-29 -45,-29 -34,0 -55,-18 -351,-309 -307,-302 -537,-512 -707,-647 -64,-51 -119,-98 -123,-104 -3,-5 -22,-17 -40,-24 -19,-8 -60,-36 -93,-63 -32,-26 -86,-61 -120,-77 -34,-16 -62,-32 -62,-35 0,-4 10,-11 23,-16 35,-16 26,-36 -28,-68 -27,-16 -68,-46 -90,-68 -23,-21 -46,-39 -51,-39 -6,0 -31,-14 -55,-32 -37,-27 -354,-209 -649,-373 -50,-28 -80,-51 -89,-71 -25,-52 -53,-73 -200,-150 -80,-42 -160,-86 -176,-99 -17,-12 -113,-66 -213,-119 -100,-53 -231,-126 -290,-163 -104,-64 -127,-77 -222,-122 -25,-12 -70,-42 -100,-66 -30,-25 -62,-45 -70,-45 -8,0 -60,-32 -115,-71 -55,-39 -116,-79 -135,-89 -19,-10 -48,-32 -65,-49 -16,-17 -46,-36 -67,-42 -22,-5 -63,-31 -93,-57 -101,-87 -291,-198 -600,-348 -104,-51 -203,-102 -220,-113 -37,-25 -42,-26 -47,-3 -3,12 -9,7 -20,-20 -14,-31 -24,-39 -60,-47 -43,-11 -166,-69 -175,-83 -2,-5 8,-8 24,-8 15,0 37,-7 47,-15 18,-13 12,-18 -80,-62 -86,-42 -107,-48 -161,-48 -36,0 -62,-4 -61,-10 1,-5 -2,-17 -5,-25 -3,-8 -7,-26 -9,-40 -2,-19 -30,-43 -118,-103 -63,-43 -126,-83 -140,-88 -28,-12 -70,-48 -70,-61 0,-5 -19,-27 -41,-48 -39,-37 -41,-42 -35,-77 8,-44 21,-407 35,-1008 6,-231 15,-472 21,-535 5,-63 15,-184 20,-269 6,-85 16,-163 23,-175 7,-12 17,-39 22,-61 13,-49 39,-54 43,-7 2,17 5,32 6,32 2,0 19,-6 38,-14 19,-8 120,-31 224,-51 332,-63 436,-85 559,-120 106,-30 239,-66 302,-82 15,-3 37,7 75,35 29,22 79,48 110,57 31,9 73,27 93,40 76,52 368,216 522,294 88,45 188,99 221,121 33,22 66,40 74,40 38,0 111,36 164,81 39,33 71,52 97,56 21,3 42,13 47,23 5,10 66,45 135,78 69,34 164,86 211,117 47,30 106,66 132,79 26,14 62,36 81,50 19,14 45,26 58,26 14,0 43,18 73,46 26,25 65,50 85,55 20,6 56,28 79,48 65,60 286,195 353,215 21,7 22,5 17,-26 -19,-108 -118,-510 -148,-604 -20,-61 -36,-117 -36,-125 0,-8 -11,-37 -24,-65 -18,-39 -33,-55 -62,-69 -22,-10 -55,-31 -75,-46 -20,-16 -42,-29 -47,-29 -6,0 -31,-16 -56,-35 -25,-18 -76,-52 -113,-73 -37,-22 -97,-58 -133,-80 -171,-108 -218,-137 -259,-159 -24,-12 -58,-33 -75,-46 -17,-12 -65,-43 -106,-67 -41,-24 -120,-71 -175,-106 -55,-34 -119,-67 -142,-73 -64,-17 -108,-85 -84,-129 6,-11 21,-22 33,-24 14,-2 24,-12 28,-28 4,-15 15,-26 30,-30 21,-5 26,-13 28,-45 2,-22 8,-44 13,-49 5,-6 9,-21 9,-35 0,-55 90,-303 246,-681 20,-47 49,-123 66,-170 17,-47 44,-112 60,-144 17,-33 37,-83 45,-110 8,-28 30,-80 48,-116 18,-36 40,-90 50,-120 10,-30 38,-100 62,-155 25,-55 55,-129 68,-165 13,-36 39,-99 58,-141 20,-43 45,-106 56,-142 11,-36 30,-85 42,-108 24,-48 98,-264 244,-714 106,-327 113,-345 157,-391 23,-25 43,-76 99,-255 39,-122 98,-297 132,-389 l 63,-165 31,3 c 23,2 35,-2 42,-17 16,-30 14,-38 -14,-45 -23,-6 -24,-9 -14,-29 19,-34 134,-151 240,-243 54,-46 106,-98 118,-117 11,-18 32,-39 46,-45 14,-6 25,-17 25,-25 0,-7 24,-24 52,-38 50,-23 53,-27 54,-62 0,-27 9,-46 31,-70 16,-17 41,-52 56,-77 24,-44 27,-46 92,-57 86,-15 170,-56 192,-94 16,-26 43,-40 43,-21 0,4 23,33 50,65 27,32 58,77 68,100 11,23 41,68 68,99 69,81 186,276 419,698 259,468 403,706 526,867 34,45 55,86 73,145 19,63 38,99 77,148 28,36 61,85 72,110 11,25 42,76 68,113 26,38 50,81 54,96 3,16 17,39 31,52 14,13 32,39 40,57 7,18 34,59 59,91 25,32 51,76 57,97 5,21 19,49 29,63 11,13 19,31 19,41 0,10 9,29 20,43 11,14 20,35 20,47 0,12 14,35 30,50 17,15 30,33 30,40 0,7 11,25 25,42 14,16 25,35 25,42 0,7 11,22 25,34 14,12 25,33 25,46 0,13 7,29 15,36 8,7 15,20 15,30 0,10 7,23 15,30 8,7 22,39 31,71 9,33 24,65 33,72 10,7 23,26 30,43 7,17 24,37 38,45 23,12 24,18 19,59 -5,40 -2,52 24,94 17,26 44,74 60,107 39,77 62,99 94,93 31,-5 35,11 5,19 -20,5 -20,6 6,45 14,21 37,44 50,50 20,9 25,19 25,47 0,26 6,39 25,51 18,12 25,25 25,48 0,31 42,103 80,139 11,10 20,28 20,41 0,13 13,40 30,61 16,21 30,42 30,47 0,5 12,20 27,34 15,14 28,32 29,41 2,9 10,21 19,26 11,6 13,12 6,21 -7,8 9,34 55,89 36,43 79,103 95,134 17,31 50,78 74,104 24,25 53,65 65,89 12,23 40,72 62,108 53,87 324,554 354,611 13,24 35,58 49,77 14,18 29,43 34,56 5,13 20,37 34,54 13,16 28,40 32,54 4,14 27,54 51,89 24,35 44,72 44,83 0,10 11,30 25,44 38,38 35,100 -9,161 -18,27 -50,80 -71,118 -80,147 -253,390 -574,808 -113,147 -218,284 -233,304 -16,20 -28,49 -28,64 0,22 -5,29 -20,29 -12,0 -29,15 -44,39 -33,52 -63,73 -87,60 -14,-7 -29,-4 -58,13 l -38,22 -89,-51 c -181,-102 -384,-191 -475,-208 -43,-8 -58,13 -34,48 20,31 29,110 65,532 67,803 194,1965 311,2858 27,209 49,385 49,391 0,7 -14,28 -31,45 -20,21 -29,40 -26,52 3,10 -4,28 -15,41 -22,26 -98,171 -98,189 0,6 -15,28 -32,49 -18,21 -91,141 -162,267 -71,125 -140,242 -153,260 -27,37 -28,41 -9,62 8,9 19,36 25,60 l 9,44 -37,-37 c -41,-40 -53,-43 -71,-21 -7,8 -29,15 -49,15 -64,0 -76,31 -40,103 15,29 23,64 24,114 2,40 2,73 1,73 -1,0 -14,-26 -30,-57 z m -96,-363 c 0,-24 -26,-38 -42,-22 -8,8 -8,15 2,27 18,21 40,19 40,-5 z m -265,-271 c 8,-23 0,-34 -32,-43 -18,-6 -21,-4 -16,16 12,48 37,62 48,27 z m 562,-481 c 25,-23 31,-68 10,-68 -27,0 -57,31 -57,61 0,35 15,37 47,7 z m -827,-1 c 0,-22 -39,-120 -54,-135 -7,-8 -57,-34 -111,-58 l -97,-43 7,27 c 6,28 131,162 150,162 6,0 24,14 40,30 29,31 65,40 65,17 z m 922,-126 c 13,-11 36,-42 51,-69 24,-43 25,-51 12,-62 -12,-10 -20,-9 -40,4 -14,9 -25,20 -25,25 0,4 -16,28 -35,52 -19,24 -35,50 -35,57 0,19 44,14 72,-7 z m -1013,-223 c -16,-78 -38,-207 -49,-288 -10,-80 -37,-232 -60,-338 -41,-195 -121,-726 -160,-1057 -11,-99 -25,-287 -30,-418 -5,-131 -12,-243 -16,-249 -4,-6 -8,-77 -10,-157 -2,-80 -5,-162 -8,-181 -3,-19 -8,-60 -11,-90 -3,-30 -13,-122 -21,-205 -8,-82 -31,-243 -50,-357 -19,-115 -34,-230 -32,-260 l 3,-53 27,40 c 58,86 151,529 218,1045 37,286 59,408 73,417 14,9 3,-277 -19,-477 -18,-158 -20,-244 -14,-500 3,-129 0,-164 -28,-318 -17,-94 -41,-202 -52,-239 -31,-99 -50,-224 -50,-322 0,-118 18,-298 32,-321 15,-24 51,-40 89,-40 31,0 174,52 250,91 24,12 91,41 149,65 58,23 191,81 295,129 226,103 240,108 328,125 54,10 80,22 133,61 36,26 89,58 117,71 29,12 99,46 157,75 58,29 109,53 114,53 5,0 26,16 47,35 43,39 60,43 84,19 21,-21 15,-38 -56,-147 -32,-50 -59,-102 -59,-114 0,-12 -20,-45 -45,-73 -24,-28 -52,-65 -61,-83 -17,-34 -275,-421 -452,-678 -126,-183 -192,-272 -198,-266 -2,2 2,23 10,45 9,23 13,42 11,42 -6,0 -107,-168 -160,-265 -26,-49 -121,-216 -210,-370 -263,-455 -286,-494 -356,-628 -38,-70 -84,-149 -104,-175 -19,-26 -78,-112 -130,-192 -51,-80 -112,-165 -133,-190 -95,-108 -490,-850 -702,-1320 -45,-102 -112,-248 -148,-325 -36,-77 -82,-180 -102,-230 -50,-121 -75,-179 -132,-313 -26,-63 -48,-118 -48,-124 0,-6 -16,-48 -36,-94 -19,-46 -33,-88 -29,-94 8,-13 52,10 84,44 28,30 67,36 57,9 -4,-9 -40,-71 -81,-138 -41,-66 -95,-165 -120,-220 -61,-131 -71,-149 -88,-153 -28,-6 -125,202 -202,434 -40,121 -84,243 -99,272 -14,28 -26,60 -26,71 0,18 3,19 27,10 43,-16 62,-38 102,-114 35,-68 36,-69 39,-37 2,19 -11,75 -32,135 -39,112 -61,241 -51,289 4,17 19,42 33,55 l 25,23 -25,0 c -14,0 -35,8 -47,18 -23,19 -113,272 -287,807 -57,176 -131,394 -164,485 -33,91 -132,394 -219,673 -88,280 -162,511 -165,515 -13,12 -49,-37 -55,-75 -5,-29 -11,-39 -28,-41 -19,-3 -25,4 -35,43 l -13,47 -42,-7 c -33,-5 -44,-3 -49,8 -9,24 24,75 59,93 17,9 53,32 79,50 26,19 134,77 240,130 106,53 206,107 224,120 17,13 34,24 39,24 4,0 29,16 55,35 51,37 332,175 358,175 17,0 17,2 -13,-430 -17,-241 -17,-341 1,-347 6,-2 25,8 42,22 35,30 53,79 106,300 19,82 43,157 58,180 28,47 68,153 68,183 0,12 -8,26 -17,31 -16,9 -16,12 -3,20 11,8 15,30 16,80 0,58 4,75 22,94 12,13 22,29 22,37 0,7 9,43 20,79 34,113 81,327 98,450 14,96 22,123 43,148 20,23 28,49 37,121 7,50 28,142 48,204 19,62 40,154 46,203 5,50 16,116 24,147 8,32 14,75 14,97 0,22 13,66 31,104 42,91 67,220 84,437 41,514 67,625 176,755 l 42,50 -31,3 c -17,2 -33,10 -36,18 -6,15 30,266 64,449 33,175 53,389 40,433 -5,20 -10,62 -10,92 l 0,55 -29,-30 c -16,-17 -57,-92 -92,-167 l -63,-138 -49,-6 c -26,-4 -58,-15 -71,-25 -45,-35 -95,-165 -132,-339 -14,-69 -33,-140 -41,-158 -23,-48 -169,-179 -238,-214 -33,-17 -74,-41 -92,-54 -17,-13 -35,-24 -39,-24 -14,0 -110,-64 -149,-100 -39,-35 -86,-64 -425,-255 -252,-142 -363,-211 -529,-329 -86,-62 -194,-138 -241,-171 -129,-90 -216,-160 -320,-260 -98,-93 -244,-211 -410,-330 -52,-37 -121,-90 -152,-116 -31,-27 -63,-49 -71,-49 -8,0 -22,-12 -32,-26 -9,-14 -36,-34 -59,-44 -23,-11 -53,-31 -66,-45 -13,-14 -43,-34 -65,-44 -22,-10 -53,-33 -70,-51 -16,-17 -41,-36 -54,-41 -40,-16 -195,-122 -219,-151 -13,-15 -33,-30 -45,-33 -31,-10 -146,-83 -182,-116 -16,-16 -47,-35 -67,-43 -49,-21 -194,-119 -238,-162 -20,-19 -40,-34 -45,-34 -9,0 -64,-34 -188,-116 -34,-23 -82,-51 -106,-64 l -44,-22 7,204 c 22,703 27,842 36,1008 6,102 10,289 10,416 l 0,231 358,178 c 196,98 431,212 522,255 310,145 661,333 835,446 46,30 101,62 122,70 21,9 47,24 58,33 48,42 117,71 171,71 69,0 157,33 203,76 l 36,34 -24,20 c -13,11 -22,22 -20,24 2,2 60,34 129,71 69,38 163,90 209,117 164,96 325,173 364,174 22,0 47,9 60,21 12,10 34,24 49,31 16,6 47,29 70,51 35,32 118,71 118,55 0,-25 -264,-204 -301,-204 -10,0 -28,-9 -39,-20 -11,-11 -24,-20 -29,-20 -11,0 -249,-189 -270,-214 -7,-9 -20,-16 -27,-16 -8,0 -33,-17 -57,-38 -23,-21 -49,-41 -58,-44 -31,-12 -155,-97 -183,-127 -17,-17 -34,-31 -39,-31 -4,0 -27,-13 -50,-29 -23,-15 -139,-86 -257,-156 -118,-70 -297,-177 -397,-237 -100,-60 -198,-115 -218,-124 -20,-8 -64,-35 -98,-60 -34,-25 -77,-54 -97,-63 -103,-52 -299,-182 -522,-348 -98,-73 -178,-137 -178,-142 0,-19 21,-22 57,-10 34,11 35,13 17,26 -18,13 -17,15 11,38 17,13 48,33 70,44 22,10 51,31 64,45 14,14 41,31 60,36 20,5 59,29 86,54 28,24 152,103 275,176 124,73 281,166 349,207 109,64 161,86 161,68 0,-3 -7,-22 -15,-42 -8,-19 -15,-37 -15,-39 0,-10 31,-1 90,27 65,30 121,74 241,185 46,43 82,67 125,83 68,24 91,36 84,43 -9,9 23,39 62,59 20,10 60,39 88,64 28,25 72,56 98,69 26,13 61,38 77,56 17,17 47,41 68,52 34,17 215,137 287,190 270,198 576,431 615,468 28,26 61,50 75,54 14,3 54,31 90,61 51,44 136,92 404,226 238,121 335,174 325,180 -23,14 -52,10 -99,-15 -40,-21 -113,-45 -100,-33 3,3 41,33 85,67 44,34 105,86 135,115 30,29 146,121 258,204 221,166 323,250 571,470 101,91 157,147 148,149 -9,2 -40,-13 -69,-32 -29,-20 -58,-36 -63,-36 -6,0 -29,-18 -50,-41 -39,-40 -83,-69 -105,-69 -23,0 -8,41 26,66 20,16 40,38 45,51 5,13 30,36 55,51 47,27 131,82 209,136 38,26 48,28 101,11 17,-5 32,2 60,28 54,48 114,87 134,87 16,0 15,-12 -11,-142 z m 1159,40 c 27,-27 7,-78 -30,-78 -11,0 -18,7 -18,20 0,10 -7,23 -17,28 -25,14 -9,42 25,42 15,0 33,-5 40,-12 z m -410,-51 c 2,-11 -3,-17 -17,-17 -23,0 -35,15 -26,31 10,15 39,6 43,-14 z m 279,-32 c 45,0 49,-10 17,-39 -37,-32 -69,-33 -89,-2 -21,31 -10,59 19,49 11,-4 35,-8 53,-8 z m 109,-87 c 4,-12 0,-24 -11,-32 -14,-10 -15,-17 -6,-34 6,-11 11,-34 11,-51 0,-24 -4,-31 -19,-31 -29,0 -70,41 -77,77 -5,26 -2,34 21,49 15,10 31,28 36,42 8,20 12,22 24,12 8,-6 17,-21 21,-32 z m -299,-25 c 12,-31 12,-33 -7,-33 -27,0 -61,35 -54,55 11,27 46,13 61,-22 z m 151,-35 c 18,-18 14,-38 -6,-38 -21,0 -56,33 -45,43 10,11 38,8 51,-5 z m -84,-34 c 26,-10 19,-43 -10,-50 -35,-9 -63,18 -44,40 13,17 29,20 54,10 z m 147,-47 c 38,-26 64,-70 54,-95 -5,-13 -14,-7 -49,29 -42,42 -67,89 -48,89 5,0 24,-10 43,-23 z m -66,-43 c 20,-21 16,-58 -8,-62 -49,-10 -84,20 -72,59 8,24 57,25 80,3 z m 72,-75 c 38,-14 44,-27 37,-84 -11,-81 -38,-99 -67,-42 -10,17 -29,47 -42,66 -27,36 -25,48 9,61 28,12 30,12 63,-1 z m -177,-198 c 116,-128 139,-157 146,-185 6,-26 5,-28 -17,-21 -36,12 -87,56 -103,90 -8,17 -29,43 -46,60 -28,27 -70,103 -70,127 0,17 36,-11 90,-71 z m -202,-27 c 30,-21 68,-94 49,-94 -29,0 -97,73 -97,105 0,10 26,5 48,-11 z m 349,-36 c 28,-27 30,-58 4,-58 -22,0 -51,35 -51,62 0,24 19,23 47,-4 z m -135,-86 c 74,-57 127,-126 135,-176 8,-49 -11,-47 -70,4 -61,54 -68,50 -15,-11 89,-104 90,-107 85,-179 -6,-75 -14,-100 -31,-100 -21,0 -236,279 -236,305 0,16 27,27 35,15 4,-6 13,-10 21,-10 12,0 10,8 -6,41 -12,23 -20,43 -18,45 3,2 19,-1 38,-6 19,-5 35,-8 37,-7 1,2 -13,26 -32,55 -60,88 -39,97 57,24 z m -838,-378 c -4,-35 -10,-61 -14,-59 -16,10 -20,75 -9,121 11,42 13,45 21,24 4,-12 5,-51 2,-86 z m 746,84 c 21,-22 27,-58 11,-58 -13,0 -51,50 -51,66 0,20 16,17 40,-8 z m -31,-112 c 79,-91 109,-130 163,-215 9,-14 19,-44 23,-66 l 6,-40 -57,60 c -104,111 -279,348 -269,365 13,21 52,-10 134,-104 z m -741,-132 c -4,-52 -12,-73 -23,-62 -3,2 -2,32 1,66 8,76 28,72 22,-4 z m 862,-272 c -41,-7 -99,51 -85,86 4,12 16,5 56,-34 44,-43 48,-49 29,-52 z m -3754,-9 c 2,-35 -1,-40 -16,-36 -26,7 -62,42 -54,54 7,12 45,29 58,25 6,-1 11,-21 12,-43 z m -126,-39 c 0,-14 -21,-42 -35,-48 -9,-3 -26,-1 -37,5 -20,11 -20,12 8,30 28,18 64,26 64,13 z m 51,-55 c -30,-24 -41,-24 -41,1 0,24 39,43 55,28 7,-6 2,-16 -14,-29 z m -196,-45 c 0,-13 -12,-23 -39,-32 -21,-7 -48,-24 -59,-38 -20,-25 -128,-84 -155,-84 -7,0 -17,-10 -22,-22 -8,-22 -9,-22 -9,5 -1,37 28,63 113,102 39,18 89,47 110,64 42,34 61,36 61,5 z m 15,-64 c 0,-26 -101,-92 -117,-77 -12,13 8,38 44,55 21,9 40,20 41,25 5,11 32,8 32,-3 z m 2900,-91 c 0,-43 -16,-83 -30,-74 -7,5 -4,72 6,103 8,28 24,9 24,-29 z m -3240,-32 c 0,-16 -24,-39 -58,-57 -48,-24 -36,18 14,50 35,23 44,24 44,7 z m 4369,-8 c 41,-14 40,-29 -3,-29 -36,0 -52,12 -41,30 8,12 5,12 44,-1 z m -4269,-33 c 0,-9 -68,-46 -84,-46 -21,0 -21,26 2,39 16,10 82,15 82,7 z m 3286,-10 c 6,-17 -12,-56 -26,-56 -6,0 -10,9 -10,19 0,43 24,68 36,37 z m 952,-182 c 26,-29 21,-44 -13,-44 -22,0 -75,50 -75,72 0,18 64,-3 88,-28 z m -4694,-55 c -16,-17 -66,-48 -112,-69 -45,-21 -95,-48 -111,-59 -37,-27 -41,-26 -41,4 0,19 7,26 28,31 15,4 46,20 68,35 23,15 61,36 85,45 24,9 51,23 59,30 8,8 23,14 34,14 18,0 16,-3 -10,-31 z m 4665,-24 c 37,-40 54,-85 32,-85 -15,0 -112,110 -106,120 12,19 33,10 74,-35 z m -98,-245 c 24,-14 25,-40 0,-40 -17,0 -31,18 -31,41 0,12 7,11 31,-1 z m -47,-129 c 51,-36 106,-96 106,-117 0,-21 -19,-54 -30,-54 -6,0 -10,5 -10,11 0,6 -31,45 -70,87 -38,42 -70,82 -70,89 0,21 29,15 74,-16 z m 3,-160 c 43,-37 86,-77 96,-89 18,-20 18,-20 -2,-27 -12,-3 -29,-4 -39,-1 -36,12 -170,186 -143,186 6,0 46,-31 88,-69 z m -5542,8 c 0,-19 -5,-24 -24,-24 -30,0 -37,17 -15,39 22,22 39,15 39,-15 z m -140,-49 c 0,-22 -65,-60 -102,-60 -46,0 -39,21 13,38 21,7 46,20 54,28 17,17 35,13 35,-6 z m 5580,-158 c -8,-9 -65,54 -65,71 0,6 17,-5 36,-26 20,-21 33,-42 29,-45 z m 76,40 c 15,-9 45,-29 67,-44 43,-29 67,-62 57,-78 -18,-29 -91,21 -134,90 -33,54 -31,60 10,32 z m 77,-145 c 12,-11 22,-28 22,-38 0,-16 -4,-17 -30,-7 -33,11 -60,43 -60,71 0,15 3,16 23,6 12,-6 32,-21 45,-32 z m -3255,-24 c -3,-10 -31,-44 -62,-76 -44,-45 -79,-69 -159,-107 -56,-27 -119,-63 -140,-80 -20,-16 -43,-30 -52,-30 -8,0 -40,-14 -70,-31 -30,-17 -74,-39 -98,-50 -39,-17 -42,-17 -33,-1 14,25 50,55 106,87 27,16 70,47 95,70 36,34 175,117 370,221 35,19 51,18 43,-3 z m 3174,-101 c 43,-32 84,-66 92,-75 12,-15 10,-17 -16,-17 -30,0 -107,44 -134,77 -21,25 -40,73 -30,73 5,0 45,-26 88,-58 z m 79,37 c 36,-22 44,-39 18,-39 -30,0 -73,31 -74,53 0,13 22,8 56,-14 z m 4,-191 c 0,-13 3,-33 6,-46 5,-16 3,-22 -7,-20 -9,2 -13,-6 -10,-29 1,-18 0,-33 -4,-33 -16,0 -65,32 -79,52 -20,29 -20,38 1,38 20,0 53,28 53,47 0,7 9,13 20,13 14,0 20,-7 20,-22 z m -57,-285 c 17,-16 24,-63 10,-63 -5,0 -15,15 -24,33 -9,17 -27,38 -40,45 -24,13 -24,13 6,7 17,-4 38,-14 48,-22 z m -3513,-45 c -1,-22 -25,-107 -33,-114 -8,-8 -11,25 -8,71 3,31 17,55 32,55 5,0 9,-6 9,-12 z m -240,-221 c 0,-17 -20,-37 -37,-37 -18,0 -16,15 3,34 19,19 34,21 34,3 z m 75,-50 c -11,-95 -26,-155 -41,-167 -11,-10 -14,-8 -14,13 0,13 -9,35 -19,48 -19,23 -19,24 9,41 27,16 50,66 50,111 0,10 5,15 10,12 6,-4 8,-27 5,-58 z m 134,-21 c 15,-16 21,-33 19,-52 -2,-22 -10,-29 -42,-38 -35,-10 -40,-16 -53,-59 -11,-38 -11,-52 -2,-63 18,-22 39,-17 39,10 0,18 6,25 22,28 19,2 25,13 36,64 11,53 46,113 58,101 2,-2 -3,-26 -12,-53 -13,-42 -29,-132 -37,-213 -3,-33 21,-38 32,-8 12,30 46,44 66,27 20,-16 19,-39 -1,-61 -15,-17 -15,-19 0,-34 17,-17 13,-57 -7,-83 -28,-36 -194,-152 -233,-163 -31,-10 -46,-21 -54,-40 -7,-15 -19,-30 -28,-33 -33,-13 -73,-38 -97,-62 -13,-13 -38,-27 -55,-30 -16,-4 -30,-12 -30,-18 -1,-14 -94,-88 -152,-121 -26,-14 -52,-32 -58,-40 -7,-8 -19,-15 -27,-15 -8,0 -29,-12 -46,-26 -22,-18 -39,-25 -59,-22 -18,3 -28,0 -28,-8 0,-7 -13,-27 -30,-44 -17,-17 -30,-35 -30,-40 0,-6 -13,-10 -29,-10 -16,0 -34,-7 -41,-15 -7,-8 -17,-15 -22,-15 -6,0 -23,-11 -40,-25 -16,-14 -36,-25 -43,-25 -7,0 -22,-11 -33,-25 -11,-14 -27,-25 -36,-25 -33,0 -76,-30 -82,-58 -10,-45 -13,-52 -24,-52 -5,0 -10,9 -10,21 0,27 -32,22 -45,-9 -5,-12 -19,-25 -30,-28 -79,-25 -123,-46 -119,-58 14,-36 -121,-11 -171,32 -11,10 -37,25 -57,35 -42,19 -57,54 -39,93 12,27 33,31 50,11 11,-14 90,-42 97,-34 9,9 -68,68 -82,63 -9,-3 -15,6 -20,30 -5,28 -2,40 13,55 19,19 19,19 44,-18 28,-44 62,-51 67,-16 3,17 -4,26 -25,34 -40,15 -63,39 -63,65 0,24 41,56 47,37 10,-29 33,-45 70,-50 l 42,-6 -5,34 c -4,24 2,51 19,90 14,31 31,75 37,99 6,23 21,52 33,64 49,49 78,166 42,166 -8,0 -15,-9 -15,-20 0,-10 -9,-24 -20,-30 -12,-6 -27,-36 -40,-78 -11,-37 -29,-85 -39,-107 -18,-39 -19,-39 -25,-15 -5,16 2,49 19,93 14,37 29,87 35,112 5,24 21,60 34,80 14,20 26,41 29,48 2,8 11,7 29,-5 25,-16 26,-16 32,5 5,21 6,21 19,3 13,-18 14,-16 21,22 6,38 21,61 33,49 2,-3 -1,-38 -7,-79 -17,-105 -22,-198 -12,-198 6,0 13,21 17,48 11,82 35,195 51,245 12,35 20,47 32,45 21,-4 21,-37 -2,-144 -9,-44 -16,-107 -14,-140 l 3,-59 23,70 c 12,38 26,96 29,127 6,57 18,74 29,43 4,-9 -1,-62 -11,-119 -27,-167 -15,-179 24,-24 28,111 37,135 48,127 16,-14 17,-58 2,-96 -6,-15 -12,-75 -13,-133 -1,-58 -6,-118 -11,-135 -8,-30 -8,-30 13,-11 29,25 46,80 44,146 -1,39 5,69 24,107 13,29 27,53 30,53 10,0 -4,-177 -16,-199 -15,-29 -9,-34 24,-22 19,8 26,18 26,36 0,14 6,38 14,53 7,15 16,48 19,75 4,26 14,58 22,71 9,13 18,46 22,74 5,43 9,51 31,57 16,4 28,1 34,-7 12,-18 1,-153 -18,-217 -8,-29 -12,-62 -8,-74 7,-20 9,-19 25,18 11,23 19,64 19,98 0,69 22,127 47,127 28,0 39,-12 55,-60 l 16,-45 11,28 c 17,44 14,55 -29,82 -42,26 -44,33 -40,100 3,57 16,77 48,73 22,-2 28,-9 33,-40 4,-26 2,-39 -8,-42 -7,-3 -13,-21 -13,-41 0,-20 4,-34 9,-30 19,11 58,113 65,169 10,74 34,156 47,156 5,0 14,-11 19,-25 7,-17 1,-60 -20,-159 -17,-74 -33,-141 -36,-149 -3,-8 -1,-18 5,-21 6,-4 15,10 21,32 5,22 19,50 29,64 20,25 51,128 51,168 0,13 8,24 20,27 15,4 20,14 20,37 0,18 6,40 13,50 12,16 14,16 26,2 18,-21 16,-75 -4,-164 -19,-84 -14,-114 10,-58 9,21 14,45 11,53 -3,8 0,24 7,36 6,12 17,40 22,62 15,55 39,53 43,-2 6,-77 28,-52 57,66 40,164 73,202 124,147 z m 561,-44 c 0,-4 -5,-13 -12,-20 -19,-19 6,-40 26,-22 24,19 49,5 41,-22 -11,-34 -34,-56 -65,-63 -15,-3 -40,-19 -55,-35 -49,-51 -56,-38 -29,45 27,79 56,125 80,125 8,0 14,-4 14,-8 z m -390,-31 c 12,-24 -6,-117 -28,-143 -26,-31 -45,-23 -38,15 4,17 10,50 13,72 4,33 26,75 39,75 2,0 8,-9 14,-19 z m -756,-59 c -4,-23 -10,-42 -15,-42 -15,0 -22,69 -9,86 20,23 32,2 24,-44 z m 946,38 c 6,-11 22,-23 35,-26 36,-9 31,-23 -15,-41 -22,-9 -40,-20 -40,-25 0,-5 9,-27 21,-50 21,-41 16,-57 -17,-58 -6,0 -19,-9 -28,-19 -22,-24 -54,-32 -91,-23 -40,11 -42,27 -3,27 30,0 34,4 52,55 11,30 24,58 29,61 5,3 11,26 14,50 2,24 6,50 9,57 5,18 22,15 34,-8 z m -111,-54 c 12,-14 6,-66 -11,-100 -16,-30 -25,-5 -20,57 4,58 11,68 31,43 z m -874,-57 c 18,-35 13,-49 -13,-33 -19,12 -29,64 -13,64 6,0 18,-14 26,-31 z m 105,-86 c 0,-13 -4,-23 -9,-23 -14,0 -21,27 -21,78 l 1,47 14,-40 c 8,-22 15,-50 15,-62 z m -266,-35 c -7,-77 -14,-95 -34,-83 -23,14 7,155 32,155 5,0 6,-31 2,-72 z m 144,35 c 2,-13 -1,-23 -7,-23 -7,0 -9,-14 -5,-40 11,-70 -7,-105 -44,-82 -10,7 -9,16 4,47 11,27 14,52 9,83 -6,41 -5,43 17,40 15,-2 24,-11 26,-25 z m -254,-41 c 7,-11 -14,-146 -25,-163 -8,-12 -12,-11 -24,5 -19,25 -19,59 -1,99 8,18 16,40 20,50 6,18 21,23 30,9 z m 86,-179 c 0,-47 -13,-68 -34,-60 -16,6 -16,18 1,80 9,34 33,19 33,-20 z m -685,-286 c -21,-61 -46,-121 -56,-132 -19,-19 -19,-19 -19,22 0,59 35,163 72,214 47,63 47,32 3,-104 z m 105,108 c 0,-8 -18,-67 -40,-131 -22,-65 -40,-121 -40,-126 0,-5 9,-4 19,2 28,15 41,12 41,-8 0,-26 -29,-62 -50,-62 -10,0 -26,7 -35,16 -21,21 -15,50 41,187 24,59 44,114 44,122 0,8 5,15 10,15 6,0 10,-7 10,-15 z m 6369,-78 c 10,-26 5,-37 -14,-37 -17,0 -49,56 -40,70 9,15 45,-7 54,-33 z m -6679,-53 c 0,-9 -18,-36 -40,-61 -22,-25 -68,-104 -104,-177 -63,-128 -64,-130 -65,-88 -2,82 64,229 138,310 32,34 71,43 71,16 z m 6821,-102 c 23,-26 52,-63 64,-82 23,-35 44,-131 28,-129 -4,0 -43,43 -86,95 -70,84 -107,151 -107,196 0,15 56,-29 101,-80 z m -647,-64 c 19,-26 21,-58 4,-58 -20,0 -48,32 -48,57 0,29 24,30 44,1 z m -6056,-12 c 5,-22 -24,-66 -43,-66 -19,0 -19,11 2,55 17,36 35,41 41,11 z m 6337,-71 c 30,-29 34,-75 7,-75 -32,0 -73,65 -57,90 10,16 24,12 50,-15 z m 302,-37 c 66,-69 104,-148 71,-148 -21,0 -84,76 -105,128 -26,62 -13,69 34,20 z m -6667,8 c 0,-20 -22,-56 -35,-56 -15,0 -22,40 -8,53 7,8 43,10 43,3 z m 6201,-27 c 26,-26 23,-74 -6,-74 -14,0 -22,11 -31,40 -17,59 -2,73 37,34 z m 590,-40 c 13,-26 -5,-32 -32,-11 -15,13 -20,25 -16,37 6,14 10,15 23,4 8,-7 19,-20 25,-30 z m -987,0 c 38,-45 33,-79 -8,-57 -29,16 -45,39 -46,66 0,31 23,28 54,-9 z m -5861,-69 c -1,-32 -19,-54 -35,-44 -21,13 3,89 25,81 7,-2 11,-19 10,-37 z m 6684,-52 c 30,-31 58,-86 50,-95 -9,-8 -63,46 -85,86 -29,51 -10,56 35,9 z m -297,-11 c 41,-36 60,-69 60,-104 0,-38 -1,-38 -39,-19 -30,16 -77,80 -87,120 -5,23 -3,26 17,26 13,0 35,-11 49,-23 z m -6430,-41 c 0,-27 -34,-61 -50,-51 -15,9 -4,56 17,72 21,16 33,8 33,-21 z m 6701,-25 c 21,-22 29,-39 29,-65 0,-20 -4,-36 -9,-36 -15,0 -81,79 -81,98 0,41 22,42 61,3 z m -610,-30 c 31,-31 39,-46 39,-76 0,-54 -25,-42 -71,34 -22,36 -39,68 -39,73 0,20 36,5 71,-31 z m -5971,3 c 56,-17 120,-69 120,-98 0,-9 -13,-17 -34,-22 -29,-5 -43,0 -80,26 -26,17 -62,38 -81,46 -22,9 -35,21 -35,32 0,37 26,41 110,16 z m -230,-23 c 0,-22 -15,-35 -29,-27 -13,9 -1,46 15,46 8,0 14,-9 14,-19 z m 71,-13 c 2,-27 -3,-63 -11,-71 -13,-14 -50,2 -50,21 0,39 58,86 61,50 z m 92,-49 c 23,-12 55,-31 71,-42 l 30,-21 -30,-13 c -43,-18 -78,-16 -108,8 -25,20 -36,66 -19,82 9,10 9,10 56,-14 z m 6497,6 c 38,-20 68,-59 81,-107 12,-46 9,-52 -20,-43 -21,6 -58,61 -86,128 -17,42 -16,43 25,22 z m -152,-54 c 19,-14 44,-47 57,-72 13,-26 39,-59 57,-73 18,-15 41,-34 51,-42 20,-16 23,-44 4,-44 -7,0 -28,13 -47,28 -19,16 -43,31 -52,35 -10,3 -24,21 -32,39 -7,18 -32,57 -55,87 -62,83 -56,98 17,42 z m -714,13 c 9,-8 16,-24 16,-34 0,-10 12,-32 26,-49 14,-17 24,-40 22,-52 -3,-19 -7,-18 -49,20 -48,42 -75,90 -65,116 7,19 30,19 50,-1 z m 521,-40 c 19,-8 45,-55 45,-84 0,-30 -34,-25 -64,11 -43,51 -32,92 19,73 z m 167,-191 c 81,-76 134,-173 94,-173 -7,0 -30,7 -51,15 -37,16 -37,16 -30,-7 4,-13 16,-31 26,-41 19,-18 27,-67 10,-67 -15,0 -107,104 -120,138 -17,40 -8,52 19,27 34,-30 34,-9 1,61 -17,36 -31,72 -31,80 0,27 31,14 82,-33 z M 6626,5282 c 27,-21 44,-54 44,-82 0,-18 -3,-19 -20,-10 -21,11 -80,86 -80,102 0,14 34,8 56,-10 z m 864,-152 c 48,-63 102,-125 119,-138 17,-12 31,-29 31,-37 0,-19 -28,-45 -48,-45 -9,0 -77,64 -151,141 -127,133 -134,142 -134,181 0,28 6,45 19,55 16,11 22,10 47,-14 16,-16 68,-80 117,-143 z m -390,140 c 24,-24 26,-40 3,-40 -20,0 -53,28 -53,47 0,19 27,16 50,-7 z m 592,-167 c 10,-9 18,-29 18,-45 0,-23 -4,-28 -24,-28 -40,0 -94,79 -70,103 8,8 55,-10 76,-30 z m -4894,-90 c 5,-10 12,-46 15,-79 3,-34 13,-79 23,-100 10,-21 17,-50 16,-65 -5,-44 18,-149 42,-198 13,-25 27,-72 30,-104 8,-63 30,-143 69,-252 14,-38 28,-88 32,-110 11,-72 -124,218 -145,311 -10,44 -32,125 -49,180 -56,181 -89,402 -64,427 11,12 22,8 31,-10 z m 3720,-172 c 20,-18 31,-51 15,-51 -12,0 -53,43 -53,57 0,18 11,16 38,-6 z m 806,-67 c 16,-42 -26,-28 -49,16 l -16,31 29,-15 c 16,-8 32,-23 36,-32 z m -459,-84 c 18,-35 19,-40 3,-40 -18,0 -70,68 -63,80 10,16 43,-6 60,-40 z m 530,15 c 30,-31 47,-75 29,-75 -14,0 -84,79 -84,94 0,25 16,19 55,-19 z m -223,-49 c 104,-55 208,-196 143,-196 -20,0 -93,67 -144,134 -55,72 -55,91 1,62 z m -199,-93 c 58,-49 237,-251 237,-269 0,-8 -3,-14 -8,-14 -15,0 -130,118 -205,211 -97,121 -102,136 -24,72 z m -504,-43 c 10,-5 26,-21 35,-35 23,-35 -1,-34 -43,1 -44,37 -38,59 8,34 z m 353,-147 c 19,-17 24,-38 9,-47 -10,-7 -61,38 -61,54 0,16 31,12 52,-7 z m -19,-217 c 103,-107 187,-199 187,-205 0,-50 -310,262 -384,387 -25,42 33,-12 197,-182 z m 216,119 c 29,-34 42,-63 22,-50 -18,11 -73,85 -63,85 6,0 24,-16 41,-35 z m -93,-13 c 60,-44 174,-158 174,-174 0,-8 -10,-23 -21,-34 -21,-19 -22,-19 -63,30 -22,26 -67,78 -98,114 -32,37 -58,72 -58,79 0,21 24,15 66,-15 z m 205,5 c 9,-7 21,-22 28,-35 10,-20 10,-27 -3,-41 -9,-10 -16,-25 -16,-34 0,-25 -27,-21 -56,8 -28,29 -24,45 12,45 27,0 29,6 14,44 -10,28 -4,32 21,13 z m -273,-302 c 108,-87 133,-125 83,-125 -22,0 -133,99 -160,144 -42,67 -23,62 77,-19 z m -56,-60 c 24,-19 60,-46 81,-60 39,-27 46,-49 24,-80 -10,-13 -21,-16 -40,-11 -15,3 -27,11 -27,18 0,6 -25,43 -55,83 -30,39 -55,74 -55,78 0,17 32,4 72,-28 z m -33,-92 c 62,-60 91,-95 91,-110 0,-13 -6,-23 -13,-23 -24,0 -84,49 -100,82 -9,18 -32,49 -51,67 -34,33 -48,71 -27,71 6,0 51,-39 100,-87 z m -110,-167 c 36,-34 91,-104 91,-118 0,-18 -23,-5 -88,51 -63,54 -132,140 -132,164 0,10 68,-42 129,-97 z m -247,-604 c -26,-7 -78,36 -124,103 -26,39 -48,72 -48,74 0,2 42,-36 93,-85 50,-49 86,-90 79,-92 z m -952,106 c 44,-30 67,-64 75,-112 l 6,-38 -45,33 c -59,41 -72,56 -91,102 -14,35 -14,37 3,37 11,0 34,-10 52,-22 z m 873,-227 c 37,-29 38,-41 6,-41 -19,0 -49,35 -49,57 0,18 2,17 43,-16 z m -576,-88 c 235,-179 354,-321 352,-420 l 0,-38 -160,165 c -145,149 -320,346 -343,387 -16,29 18,8 151,-94 z m -643,-361 -1,-42 219,-208 c 121,-114 271,-257 335,-317 l 116,-111 -42,-82 c -24,-45 -46,-82 -50,-82 -10,0 -117,112 -251,265 -178,203 -224,251 -249,265 -17,9 -20,15 -12,23 26,26 3,70 -25,46 -12,-10 -20,-7 -45,17 -48,46 -82,125 -74,172 16,95 81,139 79,54 z m -129,-320 c 6,-21 5,-23 -12,-13 -30,16 -46,39 -39,58 6,15 8,15 25,-3 11,-10 22,-30 26,-42 z m 125,-128 c 0,-8 -9,-14 -20,-14 -19,0 -28,28 -13,43 9,9 33,-12 33,-29 z m 110,-90 c 43,-39 86,-101 76,-111 -14,-15 -134,109 -136,140 0,16 22,5 60,-29 z m -71,-970 c 16,-36 5,-47 -30,-28 -34,17 -52,52 -37,71 13,16 51,-8 67,-43 z"
       id="path3420"
       inkscape:connector-curvature="0" />
    <path
       d="m 5045,10294 c -16,-8 -37,-21 -45,-28 -8,-8 -44,-26 -80,-41 -78,-34 -92,-45 -58,-45 24,0 268,113 268,125 0,11 -57,4 -85,-11 z"
       id="path3422"
       inkscape:connector-curvature="0" />
    <path
       d="m 4895,9078 c -7,-18 -11,-35 -9,-37 8,-8 44,33 44,51 0,29 -20,21 -35,-14 z"
       id="path3424"
       inkscape:connector-curvature="0" />
    <path
       d="m 6670,6484 c -229,-299 -347,-466 -430,-609 -60,-104 -102,-185 -96,-185 8,0 104,135 140,197 20,34 43,66 51,70 8,5 41,51 74,103 74,118 117,169 158,186 24,11 46,38 95,121 67,113 103,193 96,214 -2,7 -42,-37 -88,-97 z"
       id="path3426"
       inkscape:connector-curvature="0" />
    <path
       d="m 6027,5543 c -19,-22 -78,-145 -72,-151 10,-10 39,26 71,90 19,37 34,70 34,73 0,11 -18,4 -33,-12 z"
       id="path3428"
       inkscape:connector-curvature="0" />
    <path
       d="m 6877,10084 c -3,-3 0,-21 6,-40 11,-36 27,-29 27,12 0,20 -22,39 -33,28 z"
       id="path3430"
       inkscape:connector-curvature="0" />
    <path
       d="m 2871,6868 c 0,-24 3,-36 6,-28 3,8 12,19 19,23 19,11 18,33 -2,41 -24,9 -24,9 -23,-36 z"
       id="path3432"
       inkscape:connector-curvature="0" />
    <path
       d="m 2751,6720 c -7,-25 -14,-52 -16,-60 -3,-8 -1,-21 4,-28 5,-9 13,0 26,28 14,31 16,47 8,72 l -10,33 -12,-45 z"
       id="path3434"
       inkscape:connector-curvature="0" />
    <path
       d="m 2576,6546 c -7,-27 1,-56 15,-56 10,0 11,2 15,48 3,38 -21,45 -30,8 z"
       id="path3436"
       inkscape:connector-curvature="0" />
    <path
       d="m 2707,6543 c -3,-5 -8,-23 -12,-40 -11,-55 26,-36 40,20 6,21 4,27 -8,27 -9,0 -18,-3 -20,-7 z"
       id="path3438"
       inkscape:connector-curvature="0" />
    <path
       d="m 1937,6247 c -5,-21 -11,-46 -14,-55 -5,-16 -4,-16 11,-1 12,11 16,28 14,55 l -3,39 -8,-38 z"
       id="path3440"
       inkscape:connector-curvature="0" />
    <path
       d="m 2425,4920 c -9,-29 2,-40 38,-40 27,1 29,2 15,11 -10,5 -18,19 -18,29 0,26 -27,26 -35,0 z"
       id="path3442"
       inkscape:connector-curvature="0" />
  </g>
</svg>
